<svg xmlns="http://www.w3.org/2000/svg" viewBox="0 0 480 480"><defs><style>.cls-1{fill:#231f20;}.cls-2{fill:#fff;}</style></defs><title>slate_logo_light</title><g id="Layer_3" data-name="Layer 3"><path class="cls-1" d="M30.07,392.66l56.25-81q4.12-5.93,8.75-11.38a66,66,0,0,1-42-102.51l56.36-81.19a68,68,0,0,1,55.8-29.19H450.39l-56.25,81q-4.15,6-8.82,11.46a66,66,0,0,1,41.63,102.44l-56.36,81.19a68,68,0,0,1-55.8,29.19Z"/><path class="cls-2" d="M142.2,139.29,85.84,220.48a26.1,26.1,0,0,0,18.33,40.79l132.47,15.9c7,.84,6.36,11.14-.67,11.14H207.15a107.17,107.17,0,0,0-88,46.06l-12.75,18.37H314.79a28,28,0,0,0,23-12l56.36-81.19a26.1,26.1,0,0,0-18.33-40.79l-132.47-15.9c-7-.84-6.36-11.14.67-11.14h29.28a107.17,107.17,0,0,0,88-46.06l12.75-18.37H165.21A28,28,0,0,0,142.2,139.29Z"/></g></svg>